<svg xmlns="http://www.w3.org/2000/svg" viewBox="0 0 511.999 511.999" fill="#ffffff" xmlns:v="https://vecta.io/nano"><path d="M354.761 154.586a107.56 107.56 0 0 0-17.408 1.419c16.182-18.799 25.979-43.243 25.979-69.936 0-4.734-3.838-8.572-8.572-8.572-23.543 0-45.335 7.624-63.049 20.527 1.177-6.406 1.785-12.965 1.785-19.618 0-28.67-11.165-55.623-31.438-75.896-3.348-3.348-8.775-3.348-12.122 0-20.273 20.272-31.437 47.226-31.437 75.896 0 6.653.609 13.212 1.785 19.618-17.714-12.902-39.506-20.527-63.049-20.527-4.734 0-8.572 3.838-8.572 8.572 0 26.684 9.79 51.121 25.965 69.918-5.697-.922-11.508-1.401-17.393-1.401-4.734 0-8.572 3.838-8.572 8.572 0 26.692 9.797 51.137 25.979 69.936a107.55 107.55 0 0 0-17.408-1.419c-4.734 0-8.572 3.838-8.572 8.572 0 26.692 9.797 51.137 25.979 69.936a107.56 107.56 0 0 0-17.408-1.419c-4.734 0-8.572 3.838-8.572 8.572 0 56.299 43.57 102.609 98.762 106.99v79.102c0 4.734 3.838 8.572 8.572 8.572s8.572-3.838 8.572-8.572v-79.102c55.191-4.382 98.761-50.693 98.761-106.99 0-4.734-3.838-8.572-8.572-8.572a107.55 107.55 0 0 0-17.408 1.419c16.184-18.799 25.979-43.244 25.979-69.936 0-4.734-3.838-8.572-8.572-8.572a107.56 107.56 0 0 0-17.408 1.419c16.182-18.799 25.979-43.244 25.979-69.936.007-4.734-3.831-8.572-8.565-8.572zm-9.02-59.497c-4.245 42.544-38.18 76.479-80.723 80.723 4.245-42.543 38.181-76.479 80.723-80.723zm-107.062 96.909c5.64.919 11.425 1.405 17.321 1.405a107.56 107.56 0 0 0 17.408-1.419c-7.131 8.284-13.02 17.663-17.378 27.848-4.275-10.03-10.097-19.409-17.351-27.834zm34.727 77.075c-7.146 8.301-13.046 17.704-17.408 27.916-4.361-10.212-10.261-19.613-17.408-27.916a107.55 107.55 0 0 0 17.408 1.419 107.54 107.54 0 0 0 17.408-1.419zM256 21.32c13.185 16.068 20.355 36.027 20.355 57.087s-7.171 41.019-20.355 57.088c-13.185-16.069-20.355-36.028-20.355-57.088S242.814 37.388 256 21.32zm-89.743 73.769c42.543 4.245 76.478 38.18 80.723 80.723-42.543-4.245-76.478-38.181-80.723-80.723zm0 77.089c42.543 4.245 76.478 38.179 80.723 80.723-42.543-4.245-76.478-38.18-80.723-80.723zm0 77.088c42.543 4.245 76.478 38.18 80.723 80.723-42.543-4.245-76.478-38.18-80.723-80.723zm0 77.09c42.543 4.245 76.478 38.18 80.723 80.723-42.544-4.246-76.479-38.181-80.723-80.723zm89.742 47.721a107.56 107.56 0 0 0-17.409-27.916 107.58 107.58 0 0 0 17.409 1.419 107.57 107.57 0 0 0 17.409-1.419 107.57 107.57 0 0 0-17.409 27.916zm89.742-47.721c-4.245 42.543-38.18 76.478-80.723 80.723 4.245-42.543 38.181-76.479 80.723-80.723zm0-77.09c-4.245 42.544-38.18 76.478-80.723 80.723 4.245-42.543 38.181-76.478 80.723-80.723zm-80.727 3.636c2.04-20.683 11.083-39.865 25.974-54.756s34.071-23.932 54.755-25.974c-4.242 42.551-38.18 76.489-80.729 80.73z"/></svg>