<svg xmlns="http://www.w3.org/2000/svg" viewBox="0 0 212.741 212.741" fill="#ffffff" xmlns:v="https://vecta.io/nano"><path d="M106.392 56.537c-26.287 0-47.67 21.387-47.67 47.667s21.384 47.67 47.67 47.67 47.674-21.391 47.674-47.67-21.384-47.667-47.674-47.667zm0 88.863c-22.754 0-41.261-18.481-41.261-41.2 0-22.74 18.506-41.232 41.261-41.232 22.74 0 41.239 18.492 41.239 41.232 0 22.719-18.499 41.2-41.239 41.2zm-72.214-41.196c0-1.782-1.435-3.221-3.203-3.221H3.189c-1.761 0-3.189 1.442-3.189 3.221 0 1.768 1.428 3.207 3.189 3.207h27.786a3.21 3.21 0 0 0 3.203-3.207zm19.43-54.338c1.192 1.192 3.353 1.167 4.538 0 1.238-1.249 1.245-3.296 0-4.542l-17.78-17.765c-.619-.619-1.414-.959-2.266-.959s-1.657.34-2.262.952c-1.256 1.242-1.242 3.275 0 4.527l17.77 17.787zm3.986 107.705a3.19 3.19 0 0 0-2.28.956L37.535 176.3c-1.256 1.256-1.256 3.31 0 4.57 1.557 1.528 2.985 1.542 4.57-.032l17.765-17.773a3.24 3.24 0 0 0-.014-4.549 3.16 3.16 0 0 0-2.262-.945zm151.951-56.592h-27.779c-1.768 0-3.203 1.442-3.203 3.221 0 1.768 1.432 3.207 3.203 3.207h27.779c1.768 0 3.196-1.442 3.196-3.207 0-1.779-1.428-3.221-3.196-3.221zm-50.39-51.131l17.758-17.773c1.242-1.249 1.249-3.282.007-4.506a3.18 3.18 0 0 0-2.28-.966c-.848 0-1.657.34-2.262.952l-17.79 17.78c-1.249 1.238-1.242 3.285.014 4.542 1.164 1.152 3.318 1.195 4.553-.029zm-1.736 108.683c-.612-.623-1.414-.963-2.273-.963-.848 0-1.65.34-2.265.956-1.267 1.274-1.267 3.271 0 4.542l17.765 17.805c1.016.998 2.623 1.893 4.585-.039 1.22-1.224 1.22-3.278-.036-4.534l-17.776-17.767zm-52.988 20.424c-1.714.014-3.157 1.449-3.157 3.207v25.184c0 .848.333 1.643.923 2.226.619.63 1.414.963 2.294.981 1.768-.029 3.207-1.471 3.214-3.235l-.007-25.156c0-1.754-1.463-3.193-3.267-3.207zm.057-145.187a3.27 3.27 0 0 0 3.214-3.239l-.007-25.127c0-1.761-1.464-3.196-3.267-3.214-1.714.021-3.157 1.457-3.157 3.214v25.156a3.08 3.08 0 0 0 .923 2.23c.623.626 1.417.959 2.294.98z"/></svg>