<svg xmlns="http://www.w3.org/2000/svg" width="56" height="56" fill="#ffffff" xmlns:v="https://vecta.io/nano"><path d="M50.9 22.5c1-2.9.4-6-1.6-8.3-2.1-2.4-5.4-3.3-8.4-2.4-1.4-.4-2.9-.3-4.2.4-1.2.6-2.1 1.5-2.6 2.7a7.01 7.01 0 0 0-5.8 2.7c-1.2 1.6-1.7 3.7-1.2 5.7.4 1.6 1.2 2.9 2.4 3.8-1.6 2.4-.8 5.3.9 7.1 1.6 1.7 4.3 2.5 6.7 1.4l.2 5.7c0 1.6-.9 3.1-2.3 3.9-.3.2-.5.5-.5.9a.94.94 0 0 0 1 1h9.3c.5 0 .9-.3 1-.8.1-.4-.1-.9-.5-1.1-1.4-.8-2.3-2.2-2.3-3.9v-4.5a5.42 5.42 0 0 0 3.7-2.3c1.6 0 3.2-.7 4.4-1.8 1.4-1.3 2.2-3.1 2.2-5-.3-2.1-1.1-3.9-2.4-5.2zM49.5 31c-1 .9-2.3 1.4-3.5 1.3-.4 0-.8.2-.9.5-.6 1.2-1.9 1.9-3.3 1.9-.3 0-.5.1-.7.3s-.3.4-.3.7v5.5c0 1.4.4 2.7 1.2 3.7h-4c.8-1.1 1.2-2.4 1.2-3.8l-.2-7.5v-.1h0c0-.5-.5-.9-1.1-.9-.3 0-.5.1-.7.3-1.9 1.7-4.1 1.1-5.4-.2s-1.9-3.5-.2-5.2c.2-.2.3-.5.3-.9s-.2-.6-.5-.7c-1.2-.6-2.1-1.8-2.4-3.1-.3-1.4 0-2.9.9-4 1.1-1.4 2.9-2.1 4.6-1.8.5.1 1-.2 1.1-.7.3-1 1-1.8 1.9-2.3s2-.5 3-.2c.2.1.4.1.6 0 2.4-.8 5-.1 6.6 1.8 1.7 1.9 2.1 4.5 1 6.8-.2.4-.1.9.3 1.2 1.2.9 1.9 2.3 1.9 3.8.1 1.4-.4 2.7-1.4 3.6zm-4.4-14.1a.94.94 0 0 0-1 1 .94.94 0 0 0 1 1 .47.47 0 0 1 .5.5.94.94 0 0 0 1 1 .94.94 0 0 0 1-1c0-1.4-1.1-2.5-2.5-2.5zm-7.4-.8a.94.94 0 0 0-1 1 .94.94 0 0 0 1 1 .47.47 0 0 1 .5.5.94.94 0 0 0 1 1 .94.94 0 0 0 1-1c0-1.3-1.1-2.5-2.5-2.5zm-4.2 7.1a.47.47 0 0 1 .5.5.94.94 0 0 0 1 1 .94.94 0 0 0 1-1c0-1.4-1.1-2.5-2.5-2.5a.94.94 0 0 0-1 1 .94.94 0 0 0 1 1zm8.5-.7c-.4.4-.4 1 0 1.4s1 .4 1.4 0c.2-.2.5-.2.7 0a1.08 1.08 0 0 0 .7.3 1.08 1.08 0 0 0 .7-.3c.4-.4.4-1 0-1.4-.9-.9-2.5-.9-3.5 0zm1.8 5c-.5-.2-1.1 0-1.3.5s0 1.1.5 1.3l.3.3v.4c-.2.5 0 1.1.5 1.3.1.1.3.1.4.1.4 0 .7-.2.9-.6.3-.6.3-1.3.1-1.9-.4-.6-.8-1.1-1.4-1.4zm-8.5 1.3c-.3 0-.5-.2-.6-.5-.1-.5-.5-1-1.1-.9-.5.1-1 .5-.9 1.1.1 1.3 1.2 2.3 2.5 2.3h.2c.5-.1 1-.5.9-1.1 0-.5-.5-.9-1-.9zM27 30.4L19.7 25l4.5-.7c.4-.1.7-.3.8-.7s0-.7-.2-1L19.2 17l3.1-.6c.4-.1.7-.4.8-.8s-.1-.8-.4-1l-7.2-5.2c-.4-.3-.8-.3-1.2 0l-7.2 5.2c-.3.2-.5.6-.4 1s.4.7.8.8l3.4.7L5 22.4c-.3.3-.4.7-.3 1 .1.4.4.6.8.7l4.8.8-6.9 5.6c-.3.2-.4.5-.4.9s.3.6.6.8c2.6 1.2 5.5 1.9 8.6 2.2V46a.94.94 0 0 0 1 1h3.3a.94.94 0 0 0 1-1V34.3c3.2-.3 6.4-1 9.3-2.3.3-.1.6-.4.6-.8 0-.3-.1-.6-.4-.8zM15.5 44.9h-1.3V34.4h.6.7v10.5zM5.9 31l7.3-5.9c.3-.2.4-.6.3-1s-.4-.7-.8-.7l-4.9-.9 5.9-5.4c.3-.3.4-.6.3-1s-.4-.6-.8-.7l-3.1-.6 4.7-3.5 4.7 3.4-2.7.5c-.4.1-.7.3-.8.7s0 .7.2 1l5.5 5.6-4.9.8c-.4.1-.7.4-.8.7-.1.4.1.8.4 1l7.7 5.8c-5.7 2.1-12.7 2.1-18.2.2z"/></svg>