<svg xmlns="http://www.w3.org/2000/svg" viewBox="0 0 512 512" fill="#ffffff" xmlns:v="https://vecta.io/nano"><path d="M338.9 265.2h163.3v-20.5c0-44-11.7-87.2-34-124.8-21.6-36.6-52.4-67.1-89.1-88.4l-17.8-10.3-81.7 141.4a84.33 84.33 0 0 0-47.4 0L150.6 21.1l-17.8 10.3c-36.7 21.3-67.6 51.8-89.1 88.4-22.2 37.7-34 80.9-34 124.8v20.5H173c3.9 15.9 12.3 30 23.8 41l-81.7 141.4 17.7 10.3c37.3 21.6 79.9 33 123.1 33s85.9-11.4 123.1-33l17.7-10.3L315 306.1c11.6-10.9 20-25.1 23.9-40.9zm36.9-187.1c47.6 34.3 78.4 87.8 84.3 146.1H340c-3.9-15.9-12.4-30.5-24.2-41.9l60-104.2zm-75.3 166.6c0 24.5-19.9 44.5-44.5 44.5-24.5 0-44.5-19.9-44.5-44.5s19.9-44.5 44.5-44.5c24.5 0 44.5 19.9 44.5 44.5zM136.2 78.1l60.1 104.2a86.75 86.75 0 0 0-24.2 41.9H51.8c5.9-58.4 36.8-111.8 84.4-146.1zM256 449.9c-29.2 0-58-6.2-84.4-18.1l60.1-104.1c15.7 4.6 32.8 4.6 48.5 0l60.1 104.1c-26.3 11.8-55.1 18.1-84.3 18.1z"/></svg>