<svg xmlns="http://www.w3.org/2000/svg" width="24" height="24" fill="#ffffff" xmlns:v="https://vecta.io/nano"><path d="M18 2a3.57 3.57 0 0 0-2.71 1.29c-.49.49-.73.71-1.3.71s-.8-.22-1.29-.71a3.48 3.48 0 0 0-5.41 0C6.8 3.78 6.56 4 6 4s-.8-.22-1.29-.71A3.56 3.56 0 0 0 2 2v2c.56 0 .8.22 1.29.71A3.56 3.56 0 0 0 6 6a3.56 3.56 0 0 0 2.7-1.29C9.19 4.22 9.43 4 10 4s.8.22 1.29.71a3.48 3.48 0 0 0 5.42 0c.49-.49.73-.71 1.3-.71s.8.22 1.3.71A3.57 3.57 0 0 0 22 6V4c-.56 0-.8-.22-1.3-.71A3.57 3.57 0 0 0 18 2zm0 5a3.57 3.57 0 0 0-2.71 1.29c-.49.49-.73.71-1.3.71s-.8-.22-1.29-.71a3.48 3.48 0 0 0-5.41 0C6.8 8.78 6.56 9 6 9s-.8-.22-1.29-.71A3.56 3.56 0 0 0 2 7v2c.56 0 .8.22 1.29.71A3.56 3.56 0 0 0 6 11a3.56 3.56 0 0 0 2.7-1.29C9.19 9.22 9.43 9 10 9s.8.22 1.29.71a3.48 3.48 0 0 0 5.42 0c.49-.49.73-.71 1.3-.71s.8.22 1.3.71A3.57 3.57 0 0 0 22 11V9c-.56 0-.8-.22-1.3-.71A3.57 3.57 0 0 0 18 7zm0 6a3.57 3.57 0 0 0-2.71 1.29c-.49.49-.73.71-1.3.71s-.8-.22-1.29-.71a3.48 3.48 0 0 0-5.41 0c-.49.49-.73.71-1.29.71s-.8-.22-1.29-.71A3.56 3.56 0 0 0 2 13v2c.56 0 .8.22 1.29.71A3.56 3.56 0 0 0 6 17a3.56 3.56 0 0 0 2.7-1.29c.49-.49.73-.71 1.29-.71s.8.22 1.29.71a3.48 3.48 0 0 0 5.42 0c.49-.49.73-.71 1.3-.71s.8.22 1.3.71A3.57 3.57 0 0 0 22 17v-2c-.56 0-.8-.22-1.3-.71A3.57 3.57 0 0 0 18 13zm0 5a3.57 3.57 0 0 0-2.71 1.29c-.49.49-.73.71-1.3.71s-.8-.22-1.29-.71a3.48 3.48 0 0 0-5.41 0c-.49.49-.73.71-1.29.71s-.8-.22-1.29-.71A3.56 3.56 0 0 0 2 18v2c.56 0 .8.22 1.29.71A3.56 3.56 0 0 0 6 22a3.56 3.56 0 0 0 2.7-1.29c.49-.49.73-.71 1.29-.71s.8.22 1.29.71a3.48 3.48 0 0 0 5.42 0c.49-.49.73-.71 1.3-.71s.8.22 1.3.71A3.57 3.57 0 0 0 22 22v-2c-.56 0-.8-.22-1.3-.71A3.57 3.57 0 0 0 18 18z"/></svg>